<?xml version="1.0" encoding="UTF-8"?>
<svg version="1.1" xmlns="http://www.w3.org/2000/svg" width="500" height="500">
<path d="M0 0 C0.8773027 -0.01252808 1.75460541 -0.02505615 2.65849304 -0.03796387 C21.91489772 -0.25964721 40.15530381 -0.17929834 58.7890625 5.2734375 C60.02849609 5.62631836 60.02849609 5.62631836 61.29296875 5.98632812 C66.55215148 7.51849773 71.68448857 9.28859602 76.7890625 11.2734375 C77.46195313 11.53350586 78.13484375 11.79357422 78.828125 12.06152344 C100.62525633 20.65624173 121.6349349 34.20146174 137.7890625 51.2734375 C137.7890625 51.9334375 137.7890625 52.5934375 137.7890625 53.2734375 C138.4490625 53.2734375 139.1090625 53.2734375 139.7890625 53.2734375 C169.65648275 86.03805019 181.58736908 129.78535694 179.7890625 173.2734375 C179.29842127 179.38834195 178.1783752 185.30599531 176.7890625 191.2734375 C176.56355713 192.31177734 176.56355713 192.31177734 176.33349609 193.37109375 C171.40599412 215.59857928 160.13225905 236.02133887 149.80371094 256.13476562 C137.53541341 280.14063316 130.06666934 302.17256226 136.10546875 329.1015625 C137.46697316 335.41894294 137.49877018 340.61335866 134.20507812 346.34838867 C129.91345104 352.18278169 121.14845767 355.28050274 114.8515625 358.5234375 C113.87864258 359.02794434 112.90572266 359.53245117 111.90332031 360.05224609 C108.5342524 361.79722111 105.16215231 363.53625549 101.7890625 365.2734375 C101.14322205 365.60613647 100.49738159 365.93883545 99.83197021 366.28161621 C97.75914893 367.34934824 95.68623016 368.41689077 93.61328125 369.484375 C92.90571182 369.84877686 92.1981424 370.21317871 91.46913147 370.58862305 C87.98958974 372.3803191 84.50939205 374.17071198 81.02758789 375.95800781 C73.86498205 379.63766185 66.72113529 383.35058011 59.59765625 387.10546875 C50.1693102 392.07426927 40.74118505 397.04268242 31.27807617 401.94506836 C29.47162824 402.88380172 27.66763868 403.82727895 25.8659668 404.77514648 C23.20696063 406.1730825 20.540084 407.55483612 17.87109375 408.93359375 C16.6771978 409.56782005 16.6771978 409.56782005 15.45918274 410.21485901 C9.29006338 413.36951441 3.99432218 415.25131333 -2.8984375 413.1484375 C-11.89631401 408.05529985 -14.48926616 399.80972088 -18.57421875 390.70703125 C-22.60182758 381.97182769 -27.34982092 374.46594516 -34.5234375 367.9609375 C-35.50763672 367.03861328 -35.50763672 367.03861328 -36.51171875 366.09765625 C-46.02370889 359.66914772 -57.05661383 358.83660221 -68.1484375 357.3359375 C-78.36430128 355.94903857 -88.43114169 354.41783059 -98.421875 351.828125 C-99.1777037 351.63464981 -99.93353241 351.44117462 -100.71226501 351.24183655 C-114.90995234 347.38284964 -129.74642272 339.65098831 -138.2109375 327.2734375 C-143.25069548 317.25903469 -144.43326446 309.31814257 -143.8203125 298.31054688 C-143.71076405 293.97995955 -143.77571966 291.22562111 -146.6484375 287.83984375 C-147.916875 286.56947266 -147.916875 286.56947266 -149.2109375 285.2734375 C-151.54710506 280.36748563 -151.63873754 275.23361643 -151.96484375 269.8828125 C-152.05057562 267.2931147 -152.05057562 267.2931147 -153.2109375 265.2734375 C-153.28159367 263.23288745 -153.29515726 261.19009493 -153.2734375 259.1484375 C-153.26441406 258.05273438 -153.25539063 256.95703125 -153.24609375 255.828125 C-153.23449219 254.98507812 -153.22289062 254.14203125 -153.2109375 253.2734375 C-154.17193359 252.85384766 -154.17193359 252.85384766 -155.15234375 252.42578125 C-164.45058311 248.1161651 -170.40644518 242.8898176 -174.2109375 233.2734375 C-177.83935753 223.29528243 -176.27710782 215.80831657 -172.2109375 206.2734375 C-170.21135104 202.27548272 -168.06917964 198.36982476 -165.86865234 194.47921753 C-164.80850878 192.59981231 -163.76419977 190.71227911 -162.72265625 188.82250977 C-159.29878093 182.63345446 -155.78774262 176.5307323 -152.046875 170.52734375 C-144.34803162 157.98966523 -140.68817787 149.42918756 -142.05810547 134.74462891 C-143.96138793 103.96982844 -129.985609 73.08437746 -110.2109375 50.2734375 C-109.51484375 49.45617187 -108.81875 48.63890625 -108.1015625 47.796875 C-83.82686672 19.99287948 -52.0307455 6.97729761 -16.2109375 1.2734375 C-15.15084473 1.0983667 -14.09075195 0.9232959 -12.99853516 0.74291992 C-8.64666263 0.20349419 -4.38062296 0.05710125 0 0 Z M-82.2109375 62.2734375 C-83.55671875 63.62115234 -83.55671875 63.62115234 -84.9296875 64.99609375 C-103.91055847 84.88500021 -113.76406385 110.16898055 -113.36328125 137.5546875 C-113.23845259 140.60178699 -112.9339929 143.45679187 -112.4609375 146.4609375 C-111.25167225 157.10938859 -117.62594892 167.68525913 -122.6484375 176.6484375 C-123.2573584 177.75678955 -123.8662793 178.8651416 -124.49365234 180.00708008 C-126.38465103 183.43765508 -128.29450348 186.85701493 -130.2109375 190.2734375 C-130.82372559 191.36865723 -131.43651367 192.46387695 -132.06787109 193.59228516 C-134.85237063 198.56144191 -137.65012874 203.52277204 -140.46875 208.47265625 C-140.93684082 209.29596436 -141.40493164 210.11927246 -141.88720703 210.9675293 C-142.73640266 212.44680866 -143.59589993 213.92024912 -144.46826172 215.38598633 C-146.6112607 218.74510843 -146.6112607 218.74510843 -147.0859375 222.5859375 C-145.62354329 225.4062692 -144.39741422 226.21213714 -141.3828125 227.203125 C-139.68898438 227.67105469 -139.68898438 227.67105469 -137.9609375 228.1484375 C-131.39822903 230.10421155 -125.77957193 232.02832725 -122.2109375 238.2734375 C-119.49527128 245.19838637 -120.613177 250.80642657 -121.8359375 257.8984375 C-122.24529893 261.58269038 -121.81834579 264.62898774 -121.2109375 268.2734375 C-121.3140625 269.0984375 -121.4171875 269.9234375 -121.5234375 270.7734375 C-121.07587283 274.35395488 -119.06440445 276.07194249 -116.62109375 278.625 C-113.83858962 281.87767796 -114.07592399 285.18792592 -114.0859375 289.2734375 C-114.08207031 290.85125 -114.08207031 290.85125 -114.078125 292.4609375 C-114.2109375 295.2734375 -114.2109375 295.2734375 -115.2109375 298.2734375 C-115.60579297 302.7535284 -115.76979344 306.87629764 -114.0859375 311.0859375 C-102.88717187 324.15116407 -84.12637342 326.20331736 -67.984375 328.45703125 C-66.87991531 328.61264023 -66.87991531 328.61264023 -65.75314331 328.77139282 C-62.04425825 329.29113889 -58.33439615 329.79154419 -54.61865234 330.25976562 C-34.78541466 332.86997791 -17.89649108 340.41418318 -5.3828125 356.64453125 C-0.02548212 364.10985468 4.8529088 371.9637797 8.7890625 380.2734375 C14.67228793 377.83816796 20.35003515 375.06760722 26.0390625 372.2109375 C26.89757812 371.78361328 27.75609375 371.35628906 28.640625 370.91601562 C34.72535843 367.86929022 40.75303621 364.72149804 46.76953125 361.54296875 C53.43020384 358.02443836 60.11274355 354.55345957 66.82421875 351.1328125 C68.06415085 350.50035362 68.06415085 350.50035362 69.32913208 349.8551178 C72.69016332 348.14163845 76.05182746 346.42943457 79.41577148 344.72167969 C92.83971577 337.92531853 92.83971577 337.92531853 105.7890625 330.2734375 C105.67353027 329.20017212 105.67353027 329.20017212 105.55566406 328.10522461 C104.00201815 313.05961513 103.69605562 297.93178396 107.7890625 283.2734375 C108.08780273 282.16838867 108.08780273 282.16838867 108.39257812 281.04101562 C112.67175914 265.67888203 119.7570102 251.80855353 127.03320312 237.70654297 C144.34137308 203.8651239 158.9347517 167.84388041 147.7890625 129.2734375 C147.56863281 128.48630371 147.34820312 127.69916992 147.12109375 126.88818359 C141.89972201 108.69971472 134.0521468 91.79984273 121.7890625 77.2734375 C120.95890625 76.28085938 120.12875 75.28828125 119.2734375 74.265625 C95.73789922 46.96666824 59.28071434 31.20374246 23.7890625 28.2734375 C-14.31424592 26.36143027 -54.70369396 34.32282062 -82.2109375 62.2734375 Z " fill="#ffffff" transform="translate(246.2109375,28.7265625)"/>
<path d="M0 0 C7.69071522 4.40581459 12.70135271 11.821361 16.6328125 19.53515625 C18.56676227 22.63295005 21.15040104 24.65615574 23.953125 26.953125 C29.8108295 31.88835635 33.47371029 37.86601212 36.9375 44.625 C37.618125 44.315625 38.29875 44.00625 39 43.6875 C42.30715912 42.49129351 45.45295878 42.03494603 48.9375 41.625 C48.6075 42.945 48.2775 44.265 47.9375 45.625 C50.9075 45.13 50.9075 45.13 53.9375 44.625 C53.9375 45.615 53.9375 46.605 53.9375 47.625 C54.9275 48.285 55.9175 48.945 56.9375 49.625 C56.9375 50.285 56.9375 50.945 56.9375 51.625 C57.576875 51.480625 58.21625 51.33625 58.875 51.1875 C62.87594788 50.45263202 66.89254896 50.03918889 70.9375 49.625 C68.88516315 51.8727975 67.93082739 52.6272242 64.9375 53.625 C68.07099732 54.66949911 68.92718256 54.55923645 71.9375 53.625 C72.2675 54.615 72.5975 55.605 72.9375 56.625 C75.2475 56.625 77.5575 56.625 79.9375 56.625 C81.56187111 60.17831181 82.03697861 62.74533416 81.9375 66.625 C82.123125 67.3675 82.30875 68.11 82.5 68.875 C82.7165625 69.74125 82.7165625 69.74125 82.9375 70.625 C81.9375 71.625 81.9375 71.625 78.375 71.6875 C77.240625 71.666875 76.10625 71.64625 74.9375 71.625 C75.2675 74.265 75.5975 76.905 75.9375 79.625 C77.2575 79.955 78.5775 80.285 79.9375 80.625 C78.94921875 82.546875 78.94921875 82.546875 76.9375 84.625 C74.11609667 85.24100155 71.60030729 85.63602227 68.75 85.875 C67.62561523 85.99101562 67.62561523 85.99101562 66.47851562 86.109375 C64.63308903 86.29744395 62.7854313 86.46338576 60.9375 86.625 C62.2575 87.285 63.5775 87.945 64.9375 88.625 C64.9375 89.615 64.9375 90.605 64.9375 91.625 C66.35383336 91.79447579 67.77058533 91.96045507 69.1875 92.125 C69.97640625 92.2178125 70.7653125 92.310625 71.578125 92.40625 C74.20640397 92.68654619 74.20640397 92.68654619 77.9375 92.625 C77.5625 94.5625 77.5625 94.5625 76.9375 96.625 C73.97075429 98.10837286 71.21997334 97.68159437 67.9375 97.625 C66.6175 97.625 65.2975 97.625 63.9375 97.625 C63.9375 98.285 63.9375 98.945 63.9375 99.625 C60.4725 100.12 60.4725 100.12 56.9375 100.625 C58.9175 102.935 60.8975 105.245 62.9375 107.625 C62.2775 108.285 61.6175 108.945 60.9375 109.625 C60.6075 109.295 60.2775 108.965 59.9375 108.625 C57.58762738 108.38972227 55.23193961 108.21113583 52.875 108.0625 C50.93947266 107.93681641 50.93947266 107.93681641 48.96484375 107.80859375 C47.96582031 107.74800781 46.96679688 107.68742187 45.9375 107.625 C45.67195312 108.58664063 45.40640625 109.54828125 45.1328125 110.5390625 C44.73835937 111.55742187 44.34390625 112.57578125 43.9375 113.625 C40.8125 115 40.8125 115 37.9375 115.625 C37.9375 116.285 37.9375 116.945 37.9375 117.625 C35.2975 117.295 32.6575 116.965 29.9375 116.625 C29.9375 117.615 29.9375 118.605 29.9375 119.625 C26.9375 120.625 26.9375 120.625 22.9375 120.625 C20.82466447 121.57918379 18.8358982 122.68177748 16.8125 123.8125 C12.43045305 125.05090457 8.39158169 124.28323867 3.9375 123.625 C2.926875 123.480625 1.91625 123.33625 0.875 123.1875 C-0.0840625 122.9090625 -0.0840625 122.9090625 -1.0625 122.625 C-1.3925 121.965 -1.7225 121.305 -2.0625 120.625 C-3.30483591 123.34260979 -4.0625 125.29948919 -4.0625 128.3125 C-4.0625 129.075625 -4.0625 129.83875 -4.0625 130.625 C-4.7225 131.285 -5.3825 131.945 -6.0625 132.625 C-8.6875 132.25 -8.6875 132.25 -11.0625 131.625 C-11.0625 130.965 -11.0625 130.305 -11.0625 129.625 C-11.7225 129.625 -12.3825 129.625 -13.0625 129.625 C-14.5408226 126.66835481 -14.12282783 123.88270263 -14.0625 120.625 C-14.7225 120.625 -15.3825 120.625 -16.0625 120.625 C-16.88872671 126.23063042 -17.13045656 131.04789352 -16.0625 136.625 C-17.3825 136.625 -18.7025 136.625 -20.0625 136.625 C-21.0525 132.995 -22.0425 129.365 -23.0625 125.625 C-24.5475 126.12 -24.5475 126.12 -26.0625 126.625 C-27.72871616 126.66374921 -29.39644172 126.6700286 -31.0625 126.625 C-31.7225 127.945 -32.3825 129.265 -33.0625 130.625 C-34.3825 130.295 -35.7025 129.965 -37.0625 129.625 C-37.0625 128.635 -37.0625 127.645 -37.0625 126.625 C-37.475 127.594375 -37.8875 128.56375 -38.3125 129.5625 C-40.0625 132.625 -40.0625 132.625 -42.25 133.5 C-42.848125 133.54125 -43.44625 133.5825 -44.0625 133.625 C-45.22441874 131.30116253 -45.57696385 129.17406476 -46.0625 126.625 C-46.38733418 125.28957061 -46.7175855 123.95538449 -47.0625 122.625 C-50.44067425 121.78045644 -52.73715243 121.51655081 -56.0625 122.625 C-56.7225 121.635 -57.3825 120.645 -58.0625 119.625 C-58.660625 119.83125 -59.25875 120.0375 -59.875 120.25 C-62.0625 120.625 -62.0625 120.625 -65.0625 118.625 C-65.206875 119.73875 -65.35125 120.8525 -65.5 122 C-66.0625 125.625 -66.0625 125.625 -67.0625 127.625 C-68.0525 127.625 -69.0425 127.625 -70.0625 127.625 C-69.9696875 125.954375 -69.9696875 125.954375 -69.875 124.25 C-69.936875 123.05375 -69.99875 121.8575 -70.0625 120.625 C-71.0525 119.965 -72.0425 119.305 -73.0625 118.625 C-73.0625 119.615 -73.0625 120.605 -73.0625 121.625 C-75.3725 121.625 -77.6825 121.625 -80.0625 121.625 C-80.5575 123.605 -80.5575 123.605 -81.0625 125.625 C-81.7225 125.625 -82.3825 125.625 -83.0625 125.625 C-83.0625 124.965 -83.0625 124.305 -83.0625 123.625 C-84.0525 123.625 -85.0425 123.625 -86.0625 123.625 C-85.85625 122.8825 -85.65 122.14 -85.4375 121.375 C-85.01248068 118.25819166 -85.18869554 117.12340595 -87.0625 114.625 C-89.11250871 113.81971111 -89.11250871 113.81971111 -91.0625 113.625 C-90.1875 108.75 -90.1875 108.75 -89.0625 107.625 C-93.10872502 107.25519987 -93.10872502 107.25519987 -96.0625 109.625 C-98.75 109.75 -98.75 109.75 -101.0625 109.625 C-100.20535714 101.05357143 -100.20535714 101.05357143 -98.0625 97.625 C-100.0425 97.295 -102.0225 96.965 -104.0625 96.625 C-103.9903125 95.99851562 -103.918125 95.37203125 -103.84375 94.7265625 C-103.7509375 93.90929687 -103.658125 93.09203125 -103.5625 92.25 C-103.4696875 91.43789062 -103.376875 90.62578125 -103.28125 89.7890625 C-103.02897649 87.65587175 -103.02897649 87.65587175 -103.0625 85.625 C-104.5475 86.615 -104.5475 86.615 -106.0625 87.625 C-108.11119074 88.06929438 -110.17704293 88.43794195 -112.25 88.75 C-113.33667969 88.91757813 -114.42335937 89.08515625 -115.54296875 89.2578125 C-116.37441406 89.37898438 -117.20585937 89.50015625 -118.0625 89.625 C-118.3925 88.965 -118.7225 88.305 -119.0625 87.625 C-116.79229898 86.64434513 -114.52137746 85.6654231 -112.25 84.6875 C-111.60740234 84.40970703 -110.96480469 84.13191406 -110.30273438 83.84570312 C-107.57612285 82.6731189 -104.87981354 81.56410451 -102.0625 80.625 C-102.0625 79.965 -102.0625 79.305 -102.0625 78.625 C-103.6403125 79.12 -103.6403125 79.12 -105.25 79.625 C-108.45123357 80.46466782 -110.8036008 80.82250904 -114.0625 80.625 C-114.3925 79.965 -114.7225 79.305 -115.0625 78.625 C-113.04427083 78.234375 -111.02604167 77.84375 -109.0078125 77.453125 C-106.53428598 76.64822581 -106.53428598 76.64822581 -105.0625 72.625 C-108.6925 71.635 -112.3225 70.645 -116.0625 69.625 C-116.3925 68.305 -116.7225 66.985 -117.0625 65.625 C-109.8025 65.625 -102.5425 65.625 -95.0625 65.625 C-94.5675 64.14 -94.5675 64.14 -94.0625 62.625 C-91.48046875 61.78125 -91.48046875 61.78125 -88.25 61.125 C-84.13239742 60.28242115 -81.15866722 59.56373499 -78.0625 56.625 C-78.0625 55.965 -78.0625 55.305 -78.0625 54.625 C-76.4125 54.625 -74.7625 54.625 -73.0625 54.625 C-72.85496094 53.84898437 -72.64742187 53.07296875 -72.43359375 52.2734375 C-68.02707692 36.82297262 -61.24207337 21.31475925 -47.0625 12.625 C-42.71170259 10.35071953 -39.82474732 10.78190196 -35.125 11.5 C-30.74944584 12.05301081 -30.74944584 12.05301081 -27.01171875 10.09375 C-25.86718403 8.68347274 -24.76045136 7.24176452 -23.69140625 5.7734375 C-17.83194917 -1.95486321 -8.81638079 -3.66326757 0 0 Z M-23.99609375 13.234375 C-24.34800781 13.69328125 -24.69992188 14.1521875 -25.0625 14.625 C-23.66078464 17.74069405 -21.97841092 20.0364956 -19.6875 22.5625 C-17.0456485 25.51321097 -14.50199502 28.50244637 -12.0625 31.625 C-11.65 31.16609375 -11.2375 30.7071875 -10.8125 30.234375 C-4.72475241 23.76614319 1.04129178 20.36635068 9.9375 19.625 C8.14007512 13.23415598 3.34994021 8.23329347 -2.0625 4.625 C-11.89319762 1.34810079 -18.05382177 5.84920147 -23.99609375 13.234375 Z M-53.75 24.0625 C-62.8192575 35.44185139 -69.54092284 51.96029995 -69.0625 66.625 C-67.82889042 76.71462784 -63.71151158 84.1010411 -55.8125 90.5 C-47.95046003 95.55416855 -39.07756718 96.50604184 -30.0625 94.625 C-27.5667232 93.79596805 -25.41298726 92.82636015 -23.0625 91.625 C-23.56555332 88.85820672 -24.16591659 86.33908355 -25.125 83.6875 C-28.88609478 70.39447035 -25.0293714 55.90401856 -18.75 44.0625 C-18.21761719 43.15371094 -17.68523437 42.24492187 -17.13671875 41.30859375 C-15.77285012 37.90140193 -16.03593925 36.12273865 -17.0625 32.625 C-21.21347787 25.58944428 -27.40461502 18.45888716 -35.375 15.9375 C-42.69316955 14.7281943 -48.83787725 18.97455182 -53.75 24.0625 Z M-9.265625 34.9375 C-18.02593156 48.03987155 -23.82003428 63.74727554 -22.0625 79.625 C-20.12468682 87.77996381 -15.71428791 94.74361519 -8.52734375 99.1953125 C0.04101488 103.6119922 8.25488475 105.31171947 17.6875 102.375 C25.58318186 99.36910007 31.95104356 94.13093968 36.01171875 86.64453125 C36.82747384 84.6509054 37.4246549 82.71644643 37.9375 80.625 C38.1025 79.97273438 38.2675 79.32046875 38.4375 78.6484375 C40.99349426 64.43071944 33.91408944 48.64503495 26.5390625 36.8828125 C22.70569146 31.47869431 18.30741445 26.83497032 11.9375 24.625 C2.69583309 23.43252685 -3.50210612 27.95782576 -9.265625 34.9375 Z M-77.0625 84.625 C-77.3925 85.285 -77.7225 85.945 -78.0625 86.625 C-76.7425 85.965 -75.4225 85.305 -74.0625 84.625 C-75.0525 84.625 -76.0425 84.625 -77.0625 84.625 Z M52.9375 85.625 C56.9375 86.625 56.9375 86.625 56.9375 86.625 Z M53.9375 91.625 C53.9375 92.285 53.9375 92.945 53.9375 93.625 C54.9275 93.295 55.9175 92.965 56.9375 92.625 C55.9475 92.295 54.9575 91.965 53.9375 91.625 Z M37.9375 96.625 C37.9375 96.955 37.9375 97.285 37.9375 97.625 C39.5875 97.625 41.2375 97.625 42.9375 97.625 C42.9375 97.295 42.9375 96.965 42.9375 96.625 C41.2875 96.625 39.6375 96.625 37.9375 96.625 Z M47.9375 101.625 C48.2675 102.285 48.5975 102.945 48.9375 103.625 C49.9275 103.295 50.9175 102.965 51.9375 102.625 C50.6175 102.295 49.2975 101.965 47.9375 101.625 Z M5.9375 111.625 C6.5975 112.945 7.2575 114.265 7.9375 115.625 C7.6075 114.305 7.2775 112.985 6.9375 111.625 C6.6075 111.625 6.2775 111.625 5.9375 111.625 Z M-61.0625 114.625 C-60.7325 115.945 -60.4025 117.265 -60.0625 118.625 C-59.7325 117.965 -59.4025 117.305 -59.0625 116.625 C-59.7225 115.965 -60.3825 115.305 -61.0625 114.625 Z M-22.0625 122.625 C-21.0625 124.625 -21.0625 124.625 -21.0625 124.625 Z M-36.0625 123.625 C-35.0625 125.625 -35.0625 125.625 -35.0625 125.625 Z " fill="#ffffff" transform="translate(265.0625,103.375)"/>
<path d="M0 0 C2.475 0.99 2.475 0.99 5 2 C4.4375 3.875 4.4375 3.875 3 6 C-1.07106237 7.53624995 -4.65590962 8.2632782 -9 8 C-9.33 7.34 -9.66 6.68 -10 6 C-8.72125 5.7525 -7.4425 5.505 -6.125 5.25 C-2.73252682 4.48009414 -2.73252682 4.48009414 -0.5 1.875 C-0.335 1.25625 -0.17 0.6375 0 0 Z " fill="#8732FD" transform="translate(160,176)"/>
<path d="M0 0 C-0.33 1.98 -0.66 3.96 -1 6 C-3.76264289 6.59732819 -6.16032769 7 -9 7 C-8.39816251 4.97954558 -7.72693904 2.97888961 -7 1 C-4.53721199 -0.231394 -2.7204945 -0.07159196 0 0 Z " fill="#832CFD" transform="translate(314,145)"/>
<path d="M0 0 C0 0.66 0 1.32 0 2 C0.66 2.66 1.32 3.32 2 4 C-0.97 4 -3.94 4 -7 4 C-6.67 3.01 -6.34 2.02 -6 1 C-3.90006779 0.25486277 -2.22568901 0 0 0 Z " fill="#822AFD" transform="translate(177,165)"/>
<path d="M0 0 C0.33 0.66 0.66 1.32 1 2 C3.31 2 5.62 2 8 2 C7.49396008 4.16874252 7.00016187 5.99967627 6 8 C5.01 7.67 4.02 7.34 3 7 C3.66 5.68 4.32 4.36 5 3 C3.35 3 1.7 3 0 3 C0 2.01 0 1.02 0 0 Z " fill="#9043FD" transform="translate(337,158)"/>
<path d="M0 0 C0.66 0.33 1.32 0.66 2 1 C2 1.99 2 2.98 2 4 C-0.31 4.33 -2.62 4.66 -5 5 C-5.33 4.34 -5.66 3.68 -6 3 C-4.03533587 1.93224776 -2.03144641 0.93446535 0 0 Z " fill="#8936FD" transform="translate(152,188)"/>
<path d="M0 0 C-6.27692308 3.2 -6.27692308 3.2 -9.9375 2.1875 C-10.618125 1.795625 -11.29875 1.40375 -12 1 C-7.69388031 -0.43537323 -4.41019868 -1.47006623 0 0 Z " fill="#8E40FD" transform="translate(336,154)"/>
<path d="M0 0 C2.0625 0.4375 2.0625 0.4375 4 1 C4 1.99 4 2.98 4 4 C3.01 4.33 2.02 4.66 1 5 C0.34 3.68 -0.32 2.36 -1 1 C-0.67 0.67 -0.34 0.34 0 0 Z " fill="#7E24FD" transform="translate(230,189)"/>
<path d="M0 0 C0.99 0 1.98 0 3 0 C3 1.32 3 2.64 3 4 C1.68 3.67 0.36 3.34 -1 3 C-0.67 2.01 -0.34 1.02 0 0 Z " fill="#822AFD" transform="translate(288,148)"/>
<path d="M0 0 C1.32 0.33 2.64 0.66 4 1 C3.67 1.99 3.34 2.98 3 4 C2.01 3.67 1.02 3.34 0 3 C0 2.01 0 1.02 0 0 Z " fill="#9246FD" transform="translate(208,146)"/>
<path d="M0 0 C0.99 0 1.98 0 3 0 C3 0.99 3 1.98 3 3 C2.01 3 1.02 3 0 3 C0 2.01 0 1.02 0 0 Z " fill="#7F26FD" transform="translate(215,135)"/>
<path d="M0 0 C0.99 0 1.98 0 3 0 C3 0.99 3 1.98 3 3 C2.01 3 1.02 3 0 3 C0 2.01 0 1.02 0 0 Z " fill="#8F41FE" transform="translate(262,116)"/>
<path d="M0 0 C0.66 0 1.32 0 2 0 C2 0.99 2 1.98 2 3 C1.34 3 0.68 3 0 3 C0 2.01 0 1.02 0 0 Z " fill="#9953FE" transform="translate(281,144)"/>
<path d="M0 0 C0.66 0 1.32 0 2 0 C2 0.66 2 1.32 2 2 C1.34 2 0.68 2 0 2 C0 1.34 0 0.68 0 0 Z " fill="#964DFE" transform="translate(279,160)"/>
<path d="M0 0 C0.33 0.66 0.66 1.32 1 2 C0.34 1.67 -0.32 1.34 -1 1 C-0.67 0.67 -0.34 0.34 0 0 Z " fill="#9F5DFD" transform="translate(221,145)"/>
<path d="" fill="#8F40FD" transform="translate(0,0)"/>
<path d="" fill="#8936FD" transform="translate(0,0)"/>
</svg>
